<svg xmlns="http://www.w3.org/2000/svg" xmlns:xlink="http://www.w3.org/1999/xlink" id="Capa_1" x="0px" y="0px" viewBox="0 0 596.2 97.4" style="enable-background:new 0 0 596.2 97.4;" xml:space="preserve"> <style type="text/css"> .st0{fill:#586EED;} </style> <g> <g> <g> <path class="st0" d="M50.5,96.4C24.3,96.4,3,75.1,3,48.9C3,22.8,24.3,1.5,50.5,1.5c26.1,0,47.4,21.3,47.4,47.4 C97.9,75.1,76.6,96.4,50.5,96.4z M50.5,7.9c-22.6,0-41,18.4-41,41s18.4,41,41,41s41-18.4,41-41S73.1,7.9,50.5,7.9z"></path> <path class="st0" d="M450.1,17.9c-1.3,0.1-3.8,0.4-6.2,1.5c-2.2,1.1-3.1,3.2-3.6,6l-8,45.7h10.1l7.4-42.2 c0.5-2.5,1.5-9.4,3.3-10.9C452.3,17.8,451.2,17.8,450.1,17.9z"></path> <path class="st0" d="M163.6,18.1c-1.2,0.1-4.9,0.4-6.8,2.5c-1.1,1.2-1.5,2.4-1.9,4.3L146.6,71h31.6l1.6-9.2h-21.3l2.4-14.3h16.8 l1.6-8.9h-16.8l2-11.6h20.4l1.6-9.1H168C168,17.9,165.4,17.9,163.6,18.1z"></path> <path class="st0" d="M355.3,16.8c-19.8,0-30,15.9-30.1,34.7c0,10.8,5.6,18.8,16.4,20.3c6.9,12.3,10.5,17.8,16.7,17.8 c2.6,0,5.8-0.4,7-0.6v-6.7h-2c-4.3,0-8.1-5.7-11-10.9c15.3-3.1,23.3-17.5,23.3-34C375.7,25.3,368.8,16.8,355.3,16.8z M346.5,63.2 c-6.6,0-10.9-4.3-10.9-12.3c0-12.5,7-25.3,18.8-25.3c6.6,0,10.9,4.4,10.9,12.3C365.3,50.5,358.3,63.2,346.5,63.2z"></path> <path class="st0" d="M485.3,16.8c-20,0-30.9,14.6-30.9,32.1c0,14.7,7.9,23.2,23.1,23.2c6.5,0,14-1.8,17.7-3.6l0.6-0.3 c-1.3-2.3-2.4-4.8-3.1-7.6c-3.4,1.4-8.5,2.7-12.7,2.7c-9.7,0-15-5.1-15-14.9c0-12.4,7.4-22.7,20.7-22.7c3.9,0,7.9,1.2,10.9,2.7 c1.4-2.9,3.1-5.5,5-7.8l-0.9-0.5C496,17.9,490.4,16.8,485.3,16.8z"></path> <path class="st0" d="M531.8,16.8c-19.9,0-30.1,15.9-30.1,34.8c0,12,7,20.5,20.5,20.5c19.9,0,30.1-15.9,30.1-34.8 C552.2,25.2,545.3,16.8,531.8,16.8z M523,63.2c-6.6,0-10.9-4.3-10.9-12.3c0-12.5,7-25.3,18.8-25.3c6.6,0,10.9,4.4,10.9,12.3 C541.8,50.4,534.8,63.2,523,63.2z"></path> <path class="st0" d="M577,25.7c4.1,0,9.5,1.5,12.3,3.3l2.9-8.8c-2.9-1.8-8.8-3.4-14-3.4c-8.8,0-15.8,3.7-18.1,10.9 c-0.5,1.6-0.8,3.5-0.8,5.5c0,2.8,0.8,5.1,2.1,7c4.9,7.2,16.6,9.4,16.6,16.2c0,4.5-4.2,6.9-9,6.9c-3.7,0-8.5-1.1-12.4-3.2 c-1.4,2.8-3,5.3-4.8,7.6l0.6,0.4c4,2.5,10.4,4,15.3,4c15.3,0,21.1-8.8,21.1-17.4c0-12.9-18.9-15.5-18.9-22.8 C569.8,27.6,572.9,25.7,577,25.7z"></path> <path class="st0" d="M261,17.9l-5,5.4h-4.4L229.2,62c0,0,0.3,3.8,5.6,9l7.3-12.8h18.1l2.7,12.8h10.5L261,17.9L261,17.9z M246.8,49.9l8.5-14.9l3.2,14.9H246.8z"></path> <polygon class="st0" points="254.8,20.4 267,7.1 256.7,7 249.6,20.4 "></polygon> <path class="st0" d="M228.3,31.6c0-9.5-6-13.7-16-13.7h-16.5L186.5,71h10.1l3.8-21.8h2.5c2.4,0,3.5,0.5,4.5,3.2l5,12.8l0,0 c1,2.8,2.2,4.8,4.7,5.7c2.7,0.8,5.3,0.7,6.7,0.6c1.2-0.1,2.3-0.2,3.1-0.4c-1.2-0.7-2.6-3.5-3.7-6.2c-0.8-1.8-3.2-8.5-3.2-8.5 l-1.6-4.1c-0.8-2-2.1-4.7-5.1-5.3C222.5,45.3,228.3,39.6,228.3,31.6z M207,40.5h-5.1l2.4-13.4h5.7c4.5,0,7.8,1.2,7.8,5.7 C217.9,37.9,213,40.5,207,40.5z"></path> <path class="st0" d="M432.6,17.9c-0.8-0.1-1.8-0.1-3,0c-1.4,0.1-3.8,0.4-6.3,1.5c-2.2,1.2-3.1,3.2-3.7,6l0,0l-4.4,25.3 c-1.3,7.2-5.5,12-13.5,12c-7.5,0-10.6-3.2-10.6-8.4c0-1.2,0.3-3.6,0.6-5.1l5.5-31.4H387L381.4,50c-0.3,1.8-0.5,3.9-0.5,5.2 c0,12.2,9.6,16.8,20,16.8c13.6,0,22.2-6.6,24.2-18.6l4.7-27.8C430.5,22.6,431.3,18.9,432.6,17.9z"></path> <path class="st0" d="M146.6,17.8c-0.8,0-1.8,0-2.9,0c-1.3,0.1-3.8,0.4-6.1,1.4c-2.1,1.1-3,3.1-3.6,5.9l-5.9,33.3 c-1.6,9.1-4.9,11.6-10.8,14.4l3.1,7.4c8.8-2.9,15.1-8,17.5-21.2l5.5-30.5C143.8,26,144.9,19.2,146.6,17.8z"></path> <g> <path class="st0" d="M62.7,32.6c2.9,0,6.8,1.1,8.8,2.3l2.1-6.3c-2.1-1.3-6.3-2.4-10-2.4c-6.3,0-11.3,2.6-12.9,7.8 c-0.4,1.2-0.6,2.5-0.6,4c0,2,0.6,3.6,1.5,5c3.5,5.2,11.8,6.7,11.8,11.5c0,3.2-3,4.9-6.4,4.9c-2.6,0-6-0.8-8.8-2.2 c-1,2-2.1,3.8-3.5,5.4l0.4,0.2c2.8,1.8,7.4,2.9,10.9,2.9c10.9,0,15-6.3,15-12.5c0-9.2-13.5-11-13.5-16.2 C57.5,34,59.7,32.6,62.7,32.6z"></path> <path class="st0" d="M48.3,27c-0.6,0-1.3,0-2.1,0c-1,0.1-2.7,0.3-4.4,1c-1.5,0.8-2.2,2.2-2.5,4.2L35.1,56 c-1.1,6.5-3.5,8.3-7.7,10.3l2.2,5.2c6.3-2.1,10.8-5.7,12.5-15.1l4-21.7C46.3,32.8,47,28,48.3,27z"></path> </g> <path class="st0" d="M320,31.7c0-9.5-6-13.7-16-13.7h-16.5l-9.2,53h10.1l3.8-21.8h2.5c2.4,0,3.5,0.5,4.5,3.2l5,12.7l0,0 c1,2.8,2.2,4.8,4.7,5.7c2.7,0.8,5.3,0.7,6.7,0.6c1.2-0.1,2.2-0.2,3.1-0.4c-1.2-0.8-2.6-3.6-3.7-6.2c-0.7-1.9-3.2-8.5-3.2-8.5 l-1.6-4.1c-0.8-2-2-4.8-5-5.3C314.1,45.3,320,39.6,320,31.7z M298.7,40.5h-5.1l2.4-13.4h5.7c4.5,0,7.8,1.2,7.8,5.7 C309.5,37.9,304.6,40.5,298.7,40.5z"></path> </g> </g> </g> </svg>