<svg xmlns="http://www.w3.org/2000/svg" width="149" height="50" viewBox="0 0 149 50" fill="none"><path d="M24.9463 15.8003C22.6535 14.5538 20.0321 13.9204 17.1493 13.9204C14.2665 13.9204 11.8463 14.5403 9.62053 15.7666C8.86295 16.1844 8.15231 16.656 7.502 17.1749C7.36791 16.4269 7.03941 15.7936 6.52319 15.2747C5.82595 14.574 4.90747 14.2169 3.78787 14.2169C2.66827 14.2169 1.81013 14.5673 1.09278 15.268C0.368731 15.9688 0 16.8986 0 18.0239V45.1241C0 46.2089 0.362027 47.1185 1.07938 47.8395C1.79673 48.5605 2.7085 48.9243 3.78117 48.9243C4.85384 48.9243 5.82595 48.5537 6.52319 47.826C7.21372 47.1051 7.56904 46.1954 7.56904 45.1174V27.9826C7.56904 26.6148 7.92436 25.4491 8.64842 24.4047C9.37917 23.3536 10.3915 22.4979 11.6519 21.8645C12.919 21.2311 14.3537 20.9077 15.9292 20.9077C17.6656 20.9077 19.2209 21.2379 20.5484 21.8982C21.849 22.5451 22.8948 23.5423 23.6658 24.8697C24.4435 26.2105 24.8391 27.9961 24.8391 30.1657V45.1106C24.8391 46.1954 25.2011 47.1051 25.9184 47.826C26.6358 48.547 27.5476 48.9109 28.6202 48.9109C29.6929 48.9109 30.6047 48.547 31.322 47.826C32.0394 47.1051 32.4014 46.1887 32.4014 45.1106V30.1657C32.4014 26.6957 31.731 23.7242 30.4102 21.3187C29.0828 18.8998 27.2392 17.0401 24.9329 15.7868" fill="#0DB14B"></path><path d="M61.2632 16.2319C58.6687 14.7361 55.6585 13.9814 52.3332 13.9814C49.0079 13.9814 45.9374 14.7361 43.3429 16.2319C40.7416 17.7278 38.67 19.8233 37.1884 22.4511C35.7068 25.0789 34.9492 28.1515 34.9492 31.5811C34.9492 35.0108 35.7001 38.0226 37.1884 40.6505C38.6768 43.285 40.7484 45.3738 43.3429 46.8696C45.9374 48.3655 48.961 49.1201 52.3399 49.1201C55.7188 49.1201 58.7424 48.3655 61.3369 46.8696C63.9315 45.3738 65.9964 43.285 67.4646 40.6505C68.9261 38.0226 69.6703 34.9771 69.6703 31.5878C69.6703 28.1986 68.9194 25.0857 67.4311 22.4579C65.9427 19.83 63.8711 17.7345 61.2766 16.2387M57.5424 40.8863C56.0473 41.7892 54.2975 42.2474 52.3399 42.2474C50.3823 42.2474 48.6325 41.7892 47.1375 40.8863C45.6424 39.9834 44.4424 38.7234 43.5842 37.14C42.7194 35.5498 42.2836 33.6834 42.2836 31.5811C42.2836 29.4789 42.7261 27.5989 43.5909 25.9953C44.4491 24.3917 45.6491 23.1249 47.1442 22.222C48.6392 21.3191 50.389 20.8677 52.3466 20.8677C54.3042 20.8677 56.054 21.3259 57.5491 22.222C59.0441 23.1249 60.224 24.3917 61.0688 25.9886C61.9202 27.599 62.3493 29.4789 62.3493 31.5811C62.3493 33.6834 61.9202 35.5498 61.0755 37.14C60.2308 38.7167 59.0508 39.9767 57.5558 40.8796" fill="#0DB14B"></path><path d="M99.0049 16.306C96.5645 14.763 93.7756 13.9814 90.7118 13.9814C88.2379 13.9814 85.925 14.5069 83.84 15.5446C82.3181 16.2992 80.9438 17.2695 79.7437 18.4284V3.80697C79.7437 2.68846 79.3884 1.76536 78.6912 1.05787C77.9939 0.357114 77.0754 0 75.9558 0C74.8362 0 73.9781 0.350376 73.2608 1.05113C72.5367 1.75188 72.168 2.68173 72.168 3.80697V31.5271C72.2082 34.8355 72.9926 37.8474 74.4943 40.4954C76.0028 43.1434 78.0811 45.2659 80.6756 46.8022C83.2701 48.3384 86.2401 49.12 89.4983 49.12C92.7566 49.12 95.7802 48.3384 98.3814 46.8022C100.976 45.2726 103.061 43.1502 104.589 40.5021C106.118 37.8541 106.889 34.8287 106.889 31.5204C106.889 28.212 106.178 25.2136 104.777 22.5925C103.376 19.9647 101.432 17.849 98.9982 16.3127M89.4983 42.2405C87.6211 42.2405 85.9049 41.7756 84.3897 40.8525C82.8746 39.9294 81.6678 38.6424 80.803 37.0253C79.9381 35.3947 79.4957 33.5485 79.4957 31.5271C79.4957 29.5057 79.9314 27.6191 80.803 26.0356C81.6611 24.4522 82.8679 23.1855 84.3897 22.2556C85.9049 21.3325 87.6211 20.8676 89.4983 20.8676C91.3755 20.8676 93.1387 21.3325 94.6337 22.2489C96.1355 23.172 97.3422 24.4455 98.2272 26.0356C99.1121 27.6258 99.5613 29.472 99.5613 31.5271C99.5613 33.5822 99.1121 35.3947 98.2272 37.0253C97.3422 38.6492 96.1355 39.9429 94.6404 40.866C93.1454 41.7824 91.4224 42.254 89.505 42.254" fill="#0DB14B"></path><path d="M113.198 14.2241C112.125 14.2241 111.22 14.5745 110.503 15.2752C109.779 15.976 109.41 16.9058 109.41 18.0311V45.0707C109.41 46.1555 109.772 47.0651 110.49 47.7861C111.207 48.5071 112.119 48.8709 113.191 48.8709C114.264 48.8709 115.236 48.5003 115.933 47.7726C116.624 47.0517 116.979 46.142 116.979 45.064V18.0311C116.979 16.9126 116.624 15.9895 115.927 15.282C115.229 14.5812 114.311 14.2241 113.191 14.2241" fill="#0DB14B"></path><path d="M142.778 30.2874C140.975 29.3306 138.494 28.5288 135.424 27.9089C133.298 27.4709 131.669 27.0262 130.59 26.5815C129.356 26.0762 128.854 25.5843 128.646 25.2676C128.337 24.7959 128.183 24.2771 128.183 23.6774C128.183 22.7745 128.646 22.1277 129.638 21.6358C130.764 21.0766 132.172 20.8003 133.835 20.8003C135.29 20.8003 136.577 20.9755 137.676 21.3124C138.736 21.6426 139.741 22.2625 140.673 23.1586C141.377 23.8189 142.249 24.2434 143.261 24.4321C144.334 24.6275 145.279 24.4456 146.103 23.8796C146.921 23.2664 147.357 22.4848 147.411 21.5617C147.458 20.6655 147.136 19.8098 146.472 19.0417C145.192 17.4583 143.455 16.1982 141.297 15.3088C139.165 14.4262 136.691 13.9814 133.955 13.9814C131.83 13.9814 129.759 14.3318 127.801 15.0258C125.803 15.7333 124.141 16.8181 122.853 18.2601C121.533 19.7424 120.862 21.6291 120.862 23.8661C120.862 26.4198 121.868 28.5962 123.852 30.3481C125.77 32.046 128.86 33.3263 133.05 34.155C136.067 34.7008 138.159 35.3948 139.252 36.2101C140.251 36.9648 140.727 37.8003 140.693 38.784C140.66 39.761 140.143 40.5427 139.118 41.1828C138.005 41.8768 136.329 42.2339 134.136 42.2339C132.387 42.2339 130.784 41.9172 129.37 41.2906C127.955 40.6639 126.929 39.9969 126.306 39.2961C125.629 38.5684 124.804 38.1372 123.859 38.0159C122.88 37.8946 121.901 38.218 120.956 38.9727C120.118 39.6195 119.629 40.4618 119.508 41.486C119.381 42.5304 119.696 43.4669 120.467 44.289C121.868 45.6972 123.832 46.8629 126.319 47.7658C128.78 48.6619 131.495 49.1134 134.385 49.1134C137.274 49.1134 139.842 48.6417 141.846 47.7119C143.871 46.7686 145.433 45.4816 146.492 43.878C147.552 42.2676 148.088 40.4416 148.088 38.4471C148.088 36.702 147.666 35.1388 146.834 33.7912C146.003 32.457 144.642 31.2779 142.785 30.2874" fill="#0DB14B"></path><path d="M113.201 0.00683594C111.626 0.00683594 110.245 0.586304 109.105 1.73176C107.965 2.87723 107.389 4.25852 107.389 5.84868C107.389 7.43885 107.965 8.82014 109.105 9.9656C110.245 11.1111 111.619 11.6905 113.201 11.6905C114.783 11.6905 116.158 11.1111 117.297 9.9656C118.437 8.82014 119.014 7.43885 119.014 5.84868C119.014 4.25852 118.437 2.87723 117.297 1.73176C116.158 0.593042 114.783 0.00683594 113.201 0.00683594Z" fill="#8DC63F"></path></svg>