<svg width="224" height="139" viewBox="0 0 224 139" fill="none" xmlns="http://www.w3.org/2000/svg">
<g clip-path="url(#clip0_7001_2118)">
<path d="M14.2539 34.6546C14.2544 36.0612 13.837 37.4364 13.0543 38.6062C12.2716 39.7761 11.1589 40.688 9.85681 41.2268C8.55473 41.7656 7.12179 41.907 5.7392 41.6331C4.3566 41.3592 3.08644 40.6823 2.08934 39.6881C1.09224 38.6938 0.412988 37.4269 0.137471 36.0474C-0.138046 34.6679 0.00255047 33.2379 0.541481 31.9382C1.08041 30.6384 1.99347 29.5274 3.1652 28.7455C4.33692 27.9636 5.71469 27.5459 7.12427 27.5454C9.01388 27.5465 10.8259 28.2957 12.1625 29.6286C13.4992 30.9614 14.2513 32.769 14.2539 34.6546Z" fill="#1D252C"/>
<path d="M0.446729 93.1713C0.409445 91.2435 0.73431 89.3257 1.40452 87.5172C1.97301 85.9878 2.85864 84.5954 4.00348 83.431C5.08601 82.3429 6.39092 81.5004 7.82927 80.9611C9.31161 80.4044 10.8838 80.1241 12.4676 80.1342C14.0288 80.1221 15.5784 80.4026 17.0359 80.9611C18.456 81.5053 19.7424 82.3476 20.8079 83.431C21.9393 84.6029 22.8183 85.9935 23.3907 87.5172C24.0584 89.3264 24.3831 91.2436 24.3485 93.1713C24.3858 95.0991 24.0609 97.0169 23.3907 98.8254C22.8217 100.351 21.9423 101.742 20.8079 102.912C19.7424 103.995 18.456 104.837 17.0359 105.382C15.578 105.939 14.0287 106.219 12.4676 106.208C10.8839 106.217 9.31199 105.937 7.82927 105.382C6.39092 104.842 5.08601 104 4.00348 102.912C2.85864 101.747 1.97301 100.355 1.40452 98.8254C0.73431 97.0169 0.409445 95.0991 0.446729 93.1713ZM4.12724 93.1713C4.11124 94.5669 4.30532 95.957 4.70299 97.2951C5.03937 98.4422 5.59684 99.5128 6.34416 100.447C7.04454 101.304 7.93404 101.987 8.94311 102.444C10.0282 102.925 11.2051 103.165 12.3922 103.148C13.5726 103.167 14.7427 102.926 15.8199 102.444C16.8224 101.984 17.706 101.301 18.4027 100.447C19.15 99.5128 19.7075 98.4422 20.0438 97.2951C20.8114 94.5992 20.8114 91.7433 20.0438 89.0475C19.7052 87.9012 19.148 86.831 18.4027 85.8956C17.706 85.0416 16.8224 84.3583 15.8199 83.8982C14.7427 83.4162 13.5726 83.1761 12.3922 83.1948C11.2051 83.1778 10.0284 83.4178 8.94311 83.8982C7.93404 84.3551 7.04454 85.0387 6.34416 85.8956C5.59684 86.8297 5.03937 87.9004 4.70299 89.0475C4.3027 90.385 4.10856 91.7755 4.12724 93.1713Z" fill="#1D252C"/>
<path d="M90.3501 32.9955C90.3501 38.306 89.5591 42.972 87.9771 46.9938C86.5484 50.7818 84.3333 54.2255 81.477 57.0992C78.6942 59.8334 75.3438 61.9249 71.6623 63.2258C67.7352 64.6186 63.594 65.3147 59.4263 65.2823C55.332 65.3178 51.2644 64.6213 47.4162 63.2258C43.7312 61.9061 40.3705 59.8174 37.5584 57.0992C34.6526 54.2393 32.3909 50.7943 30.9238 46.9938C29.3096 42.9667 28.5024 38.3006 28.5024 32.9955C28.5024 27.6905 29.3383 23.0244 31.0099 18.9973C32.5404 15.1831 34.8451 11.7261 37.779 8.84357C40.5912 6.11508 43.9509 4.01236 47.6368 2.67403C51.4133 1.29633 55.4053 0.599977 59.4263 0.617511C63.5189 0.602322 67.5829 1.29822 71.4364 2.67403C75.1272 4.00222 78.489 6.10621 81.2941 8.84357C84.1949 11.7262 86.4554 15.1858 87.9287 18.9973C89.543 23.0244 90.3501 27.6905 90.3501 32.9955ZM42.9285 32.9955C42.8921 35.7794 43.2693 38.5534 44.0478 41.227C44.714 43.5133 45.8096 45.6526 47.2763 47.5307C48.6536 49.2694 50.4187 50.6632 52.4311 51.6008C54.6254 52.5909 57.0132 53.0807 59.4209 53.0345C61.8144 53.0775 64.1875 52.5877 66.3676 51.6008C68.3983 50.6732 70.1796 49.2784 71.5655 47.5307C73.0321 45.6526 74.1277 43.5133 74.794 41.227C75.5732 38.5535 75.9503 35.7795 75.9132 32.9955C75.948 30.1976 75.5709 27.4098 74.794 24.7212C74.1336 22.4177 73.0378 20.2616 71.5655 18.369C70.1766 16.6245 68.396 15.2302 66.3676 14.299C64.1847 13.3206 61.8136 12.8312 59.4209 12.8653C57.0093 12.826 54.6199 13.3308 52.4311 14.3419C50.4232 15.3062 48.6607 16.7126 47.2763 18.455C45.804 20.3475 44.7081 22.5036 44.0478 24.8071C43.2752 27.4654 42.8981 30.2225 42.9285 32.9902V32.9955Z" fill="#1D252C"/>
<path d="M36.2886 105.886C35.7828 105.886 35.234 105.876 34.6475 105.849C34.0609 105.822 33.469 105.79 32.8771 105.741C32.2853 105.693 31.7041 105.634 31.1284 105.564C30.5935 105.502 30.0632 105.405 29.541 105.274V81.0685C30.0643 80.9425 30.5943 80.8457 31.1284 80.7785C31.7041 80.7087 32.2906 80.6443 32.8771 80.5959C33.4637 80.5476 34.0502 80.51 34.6259 80.4886C35.2017 80.4671 35.7452 80.451 36.251 80.451C37.6118 80.4444 38.9708 80.5521 40.3135 80.7731C41.4631 80.9483 42.5736 81.3207 43.5958 81.8739C44.4856 82.3559 45.2375 83.0563 45.7805 83.9089C46.3348 84.8455 46.611 85.9199 46.5768 87.0071C46.6287 88.2053 46.2867 89.3876 45.6029 90.3738C44.9385 91.2592 44.0379 91.9402 43.0039 92.339C44.3376 92.6902 45.5492 93.3996 46.5069 94.3902C47.3732 95.3245 47.8073 96.6454 47.809 98.3529C47.809 100.85 46.8889 102.729 45.0487 103.991C43.2084 105.253 40.2902 105.883 36.294 105.881L36.2886 105.886ZM33.0063 91.2275H36.6868C37.5083 91.2318 38.3287 91.1708 39.1405 91.045C39.8408 90.9478 40.5185 90.7278 41.1422 90.3953C41.6836 90.1064 42.1427 89.6852 42.4766 89.171C42.8204 88.596 42.9904 87.934 42.9663 87.2649C42.9886 86.6207 42.812 85.9853 42.4605 85.4446C42.1054 84.9385 41.6278 84.5303 41.0722 84.2579C40.4159 83.9366 39.7162 83.7123 38.9952 83.5921C38.1604 83.4446 37.314 83.3727 36.4662 83.3773C35.573 83.3773 34.8788 83.3881 34.373 83.4149C33.8672 83.4418 33.4099 83.474 33.0009 83.5223V91.2329L33.0063 91.2275ZM33.0063 94.0358V102.826C33.27 102.847 33.582 102.874 33.9426 102.895C34.2547 102.917 34.6205 102.938 35.0456 102.949C35.4707 102.96 35.955 102.965 36.5092 102.965C37.4939 102.97 38.4775 102.903 39.4526 102.767C40.2964 102.658 41.1185 102.421 41.8901 102.063C42.563 101.748 43.1417 101.263 43.5689 100.656C44.0096 99.9827 44.2296 99.189 44.1985 98.3851C44.2212 97.6658 44.0601 96.9525 43.7304 96.3125C43.4137 95.744 42.944 95.2753 42.3744 94.9593C41.7181 94.5999 41.0045 94.3565 40.2651 94.2398C39.3583 94.0886 38.4401 94.0167 37.5208 94.025H33.0063V94.0358Z" fill="#1D252C"/>
<path d="M64.9846 95.2224C65.3667 95.7057 65.8545 96.3357 66.4482 97.1125C67.0401 97.891 67.6428 98.7555 68.2723 99.7059C68.9019 100.656 69.5153 101.644 70.1287 102.675C70.7074 103.642 71.2319 104.641 71.7 105.666H67.8742C67.3953 104.753 66.8679 103.83 66.3029 102.89C65.738 101.95 65.1676 101.059 64.5864 100.205C64.0053 99.3515 63.4349 98.5568 62.87 97.8105C62.305 97.0641 61.7938 96.4198 61.3364 95.8667C61.0243 95.8936 60.7068 95.9043 60.3786 95.9043H56.2461V105.666H52.7432V81.063C53.8286 80.8073 54.9339 80.6439 56.047 80.5744C57.2631 80.4885 58.3769 80.4456 59.3885 80.4456C62.9022 80.4456 65.5801 81.106 67.4222 82.4269C69.2642 83.7478 70.1843 85.7166 70.1825 88.3333C70.2242 89.857 69.7608 91.3519 68.8642 92.586C67.8722 93.8395 66.5178 94.7581 64.9846 95.217V95.2224ZM59.6791 83.5169C58.1886 83.5169 57.0425 83.5545 56.2515 83.6243V93.0263H58.7428C59.8288 93.0329 60.9141 92.9737 61.9929 92.8491C62.8393 92.7637 63.6643 92.5311 64.4304 92.1618C65.0702 91.8476 65.6034 91.3528 65.9639 90.7389C66.3578 89.9904 66.5453 89.151 66.5074 88.3065C66.5384 87.4918 66.3508 86.6835 65.9639 85.9654C65.6144 85.3536 65.1096 84.8443 64.5004 84.4888C63.8291 84.1082 63.0945 83.8517 62.3319 83.7317C61.4555 83.584 60.5679 83.5122 59.6791 83.5169Z" fill="#1D252C"/>
<path d="M93.1751 105.666C92.7662 104.587 92.3805 103.524 92.0182 102.477C91.6577 101.43 91.2864 100.372 90.899 99.2872H79.5669L77.2908 105.661H73.6479C74.6111 103.019 75.5133 100.576 76.3545 98.3314C77.1957 96.087 78.019 93.9553 78.8243 91.9363C79.6315 89.9174 80.4332 87.9951 81.2242 86.1534C82.0152 84.3117 82.8492 82.4968 83.7155 80.698H86.9279C87.7942 82.4968 88.6247 84.3152 89.4193 86.1534C90.2138 87.9916 91.0138 89.9192 91.8191 91.9363C92.6263 93.9553 93.4495 96.087 94.2889 98.3314C95.1284 100.576 96.0306 103.019 96.9955 105.661H93.1697L93.1751 105.666ZM89.8928 96.4145C89.1233 94.3258 88.3592 92.3033 87.6005 90.347C86.8418 88.3907 86.0544 86.5114 85.2383 84.709C84.3935 86.5078 83.5936 88.3871 82.8385 90.347C82.0834 92.3068 81.3318 94.3293 80.5839 96.4145H89.8982H89.8928Z" fill="#1D252C"/>
<path d="M115.296 53.786C116.969 53.822 118.641 53.6543 120.273 53.2866C121.401 53.0327 122.471 52.5682 123.426 51.9174C124.164 51.4084 124.736 50.6955 125.073 49.8663C125.386 49.021 125.541 48.1256 125.53 47.2245C125.53 45.1572 124.556 43.4408 122.608 42.0751C120.661 40.7095 117.31 39.2365 112.557 37.656C110.485 36.9258 108.414 36.0899 106.342 35.1485C104.321 34.2396 102.443 33.0422 100.767 31.5939C99.0999 30.1403 97.7343 28.3744 96.748 26.3962C95.6487 24.0764 95.1158 21.5298 95.1929 18.9649C95.1509 16.2465 95.7133 13.5526 96.8395 11.0771C97.9183 8.75957 99.5119 6.71766 101.499 5.1062C103.666 3.38399 106.148 2.09833 108.807 1.3207C111.951 0.400625 115.216 -0.0446062 118.492 -0.000189884C122.223 -0.0686694 125.944 0.392348 129.544 1.36903C132.199 2.10353 134.771 3.11124 137.217 4.37594L133.106 15.5874C131.212 14.6234 129.241 13.8152 127.214 13.1712C124.68 12.4211 122.044 12.0679 119.401 12.1241C115.99 12.1241 113.538 12.5948 112.046 13.5363C111.316 13.9905 110.723 14.6328 110.329 15.3955C109.935 16.1583 109.755 17.013 109.807 17.8695C109.772 18.903 110.06 19.9218 110.631 20.7851C111.257 21.647 112.049 22.3754 112.961 22.9275C114.06 23.6141 115.222 24.1948 116.431 24.6619C117.739 25.1773 119.186 25.7089 120.774 26.2566C124.061 27.4755 126.924 28.6765 129.361 29.8595C131.598 30.9066 133.649 32.3083 135.436 34.0102C137.037 35.5753 138.27 37.4752 139.047 39.573C139.898 42.0656 140.3 44.6887 140.236 47.3211C140.236 53.2168 138.164 57.7898 134.021 61.0402C129.878 64.2905 123.634 65.9157 115.29 65.9157C112.754 65.9339 110.22 65.767 107.709 65.4163C105.691 65.1308 103.692 64.7202 101.725 64.1867C100.199 63.7726 98.7032 63.2542 97.2484 62.6349C96.1712 62.1724 95.1187 61.6544 94.0952 61.0831L98.1147 49.7804C100.34 50.9504 102.683 51.8827 105.104 52.5618C108.424 53.452 111.854 53.866 115.29 53.7914L115.296 53.786Z" fill="#1D252C"/>
<path d="M112.971 103.185C116.63 103.185 118.46 101.936 118.46 99.4374C118.481 98.7498 118.311 98.0697 117.97 97.4722C117.633 96.9169 117.184 96.4378 116.652 96.0654C116.064 95.6485 115.428 95.3041 114.757 95.0398C114.047 94.7499 113.294 94.4653 112.503 94.1753C111.615 93.875 110.747 93.52 109.904 93.1122C109.131 92.7455 108.414 92.2719 107.773 91.7054C107.172 91.1658 106.687 90.51 106.347 89.7777C105.808 88.4542 105.683 86.9986 105.989 85.6028C106.296 84.2071 107.019 82.9369 108.064 81.9597C109.554 80.7355 111.611 80.1234 114.236 80.1234C115.628 80.1074 117.017 80.2717 118.368 80.612C119.326 80.8209 120.245 81.1797 121.091 81.6752L119.972 84.521C119.26 84.1242 118.503 83.8159 117.717 83.6028C116.585 83.2842 115.412 83.1323 114.236 83.1518C113.603 83.146 112.972 83.2181 112.358 83.3666C111.818 83.4949 111.305 83.7147 110.84 84.0163C110.415 84.2962 110.062 84.6736 109.812 85.117C109.552 85.5977 109.422 86.1384 109.436 86.6849C109.417 87.2739 109.554 87.8574 109.834 88.3763C110.116 88.8541 110.498 89.266 110.953 89.5844C111.479 89.9592 112.041 90.2795 112.632 90.5402C113.267 90.8301 113.972 91.1147 114.741 91.4047C115.823 91.8342 116.818 92.2692 117.717 92.7041C118.568 93.1065 119.358 93.6271 120.063 94.2505C120.722 94.8473 121.244 95.5778 121.597 96.3929C121.982 97.3476 122.167 98.371 122.14 99.3999C122.189 100.373 121.995 101.343 121.577 102.223C121.158 103.102 120.527 103.865 119.74 104.442C118.142 105.618 115.886 106.207 112.971 106.208C112.06 106.215 111.149 106.148 110.248 106.01C109.502 105.893 108.762 105.737 108.031 105.543C107.459 105.389 106.899 105.197 106.353 104.968C105.884 104.764 105.519 104.587 105.25 104.447L106.299 101.564C107.11 101.984 107.956 102.335 108.828 102.611C110.17 103.026 111.571 103.221 112.976 103.185H112.971Z" fill="#1D252C"/>
<path d="M125.352 93.1713C125.315 91.2434 125.64 89.3257 126.31 87.5172C126.879 85.9878 127.764 84.5954 128.909 83.431C129.992 82.3429 131.297 81.5004 132.735 80.9611C134.217 80.4044 135.79 80.1241 137.373 80.1342C138.935 80.1221 140.484 80.4026 141.942 80.9611C143.362 81.5053 144.648 82.3476 145.714 83.431C146.845 84.6029 147.724 85.9935 148.296 87.5172C149.574 91.1789 149.574 95.1637 148.296 98.8254C147.727 100.351 146.848 101.742 145.714 102.912C144.648 103.995 143.362 104.837 141.942 105.382C140.484 105.939 138.934 106.219 137.373 106.208C135.79 106.217 134.218 105.937 132.735 105.382C131.297 104.842 129.992 104 128.909 102.912C127.764 101.747 126.879 100.355 126.31 98.8254C125.64 97.0169 125.315 95.0991 125.352 93.1713ZM129.033 93.1713C129.017 94.5669 129.211 95.957 129.609 97.2951C129.945 98.4422 130.503 99.5128 131.25 100.447C131.95 101.304 132.84 101.987 133.849 102.444C134.934 102.925 136.111 103.165 137.298 103.148C138.478 103.167 139.648 102.926 140.726 102.444C141.728 101.984 142.612 101.301 143.308 100.447C144.056 99.5128 144.613 98.4422 144.95 97.2951C145.717 94.5992 145.717 91.7433 144.95 89.0475C144.611 87.9013 144.054 86.831 143.308 85.8956C142.612 85.0416 141.728 84.3583 140.726 83.8982C139.648 83.4162 138.478 83.1761 137.298 83.1948C136.111 83.1778 134.934 83.4178 133.849 83.8982C132.84 84.3551 131.95 85.0387 131.25 85.8956C130.503 86.8297 129.945 87.9004 129.609 89.0475C129.208 90.385 129.014 91.7755 129.033 93.1713Z" fill="#1D252C"/>
<path d="M167.549 0.724854C176.987 0.724854 184.235 2.38045 189.293 5.69163C194.351 9.00282 196.878 14.4278 196.875 21.9666C196.875 29.5053 194.319 35.0466 189.202 38.424C184.085 41.8015 176.777 43.4821 167.275 43.4821H162.798V64.6325H148.544V2.36792C151.804 1.74202 155.1 1.31525 158.412 1.08998C161.883 0.848352 164.929 0.726643 167.549 0.724854ZM168.459 12.8492C167.42 12.8492 166.403 12.8814 165.397 12.9404C164.391 12.9995 163.524 13.0639 162.792 13.123V31.3578H167.269C172.204 31.3578 175.918 30.6884 178.413 29.3496C180.908 28.0108 182.156 25.5194 182.158 21.8753C182.215 20.3592 181.886 18.8535 181.2 17.4991C180.557 16.3414 179.61 15.38 178.462 14.7177C177.119 13.9666 175.649 13.4713 174.125 13.2572C172.25 12.9718 170.355 12.8353 168.459 12.8492Z" fill="#1D252C"/>
<path d="M163.686 106.208C162.045 106.229 160.416 105.936 158.886 105.344C157.474 104.79 156.203 103.928 155.168 102.82C154.091 101.641 153.273 100.249 152.768 98.7342C152.175 96.9405 151.887 95.06 151.918 93.1714C151.883 91.2734 152.208 89.386 152.876 87.6086C153.448 86.0848 154.327 84.6941 155.459 83.5224C156.53 82.4254 157.821 81.5656 159.247 80.9987C160.718 80.4177 162.287 80.1242 163.869 80.1342C164.806 80.1256 165.742 80.1975 166.667 80.349C167.4 80.4708 168.124 80.6394 168.836 80.8537C169.348 81.0083 169.848 81.2003 170.331 81.4283C170.713 81.6216 170.982 81.7666 171.128 81.8632L170.116 84.7466C169.82 84.5607 169.507 84.4042 169.18 84.2795C168.771 84.113 168.308 83.9412 167.792 83.7748C167.237 83.598 166.671 83.4599 166.097 83.3613C165.484 83.2539 164.863 83.2001 164.24 83.2002C163.015 83.183 161.8 83.415 160.667 83.8821C159.624 84.3256 158.698 85.0037 157.961 85.8635C157.181 86.7878 156.597 87.8599 156.244 89.0154C155.83 90.3631 155.628 91.7671 155.647 93.1767C155.628 94.5512 155.804 95.9214 156.169 97.2468C156.477 98.3913 157.011 99.4629 157.74 100.399C158.438 101.274 159.334 101.972 160.355 102.434C161.51 102.937 162.76 103.183 164.02 103.153C165.374 103.189 166.725 103.018 168.028 102.649C168.844 102.406 169.641 102.105 170.412 101.746L171.316 104.63C171.03 104.809 170.727 104.96 170.412 105.081C169.883 105.291 169.34 105.465 168.787 105.602C168.037 105.788 167.277 105.931 166.511 106.031C165.578 106.154 164.638 106.213 163.697 106.208H163.686Z" fill="#1D252C"/>
<path d="M175.303 80.7087H178.806V105.671H175.303V80.7087Z" fill="#1D252C"/>
<path d="M201.729 105.666C201.32 104.587 200.934 103.524 200.572 102.477C200.211 101.43 199.835 100.372 199.453 99.2872H188.121L185.845 105.661H182.202C183.165 103.019 184.067 100.576 184.908 98.3314C185.748 96.087 186.576 93.9553 187.378 91.9363C188.18 89.9174 188.987 87.9951 189.778 86.1534C190.569 84.3117 191.403 82.4968 192.269 80.698H195.482C196.348 82.4968 197.178 84.3152 197.973 86.1534C198.768 87.9916 199.568 89.9192 200.373 91.9363C201.18 93.9553 202.003 96.087 202.843 98.3314C203.682 100.576 204.584 103.019 205.549 105.661H201.723L201.729 105.666ZM198.441 96.4145C197.672 94.3258 196.908 92.3033 196.149 90.347C195.39 88.3907 194.603 86.5114 193.787 84.709C192.942 86.5078 192.142 88.3871 191.387 90.347C190.632 92.3068 189.88 94.3293 189.132 96.4145H198.446H198.441Z" fill="#1D252C"/>
<path d="M223.995 102.643V105.666H208.944V80.7034H212.447V102.638H224L223.995 102.643Z" fill="#1D252C"/>
<path d="M223.844 34.6546C223.844 36.0612 223.427 37.4364 222.644 38.6062C221.861 39.7761 220.749 40.688 219.447 41.2268C218.145 41.7656 216.712 41.907 215.329 41.6331C213.946 41.3592 212.676 40.6823 211.679 39.6881C210.682 38.6938 210.003 37.4269 209.727 36.0474C209.452 34.6679 209.592 33.2379 210.131 31.9382C210.67 30.6384 211.583 29.5274 212.755 28.7455C213.927 27.9636 215.305 27.5459 216.714 27.5454C218.604 27.5465 220.416 28.2957 221.752 29.6286C223.089 30.9614 223.841 32.769 223.844 34.6546Z" fill="#1D252C"/>
<path d="M29.0404 113.248C32.5541 113.248 35.2553 113.914 37.144 115.245C39.0327 116.577 39.9779 118.564 39.9797 121.205C40.0156 122.48 39.7501 123.746 39.2048 124.9C38.6935 125.912 37.9208 126.77 36.9664 127.386C35.8801 128.069 34.6729 128.54 33.4096 128.771C31.8518 129.075 30.267 129.218 28.6799 129.201H25.898V138.458H22.395V113.855C23.4805 113.599 24.5857 113.435 25.6989 113.366C26.9149 113.28 28.0288 113.242 29.0404 113.242V113.248ZM29.331 116.308C27.8405 116.308 26.6943 116.346 25.9033 116.416V126.215H28.54C29.628 126.226 30.715 126.147 31.79 125.979C32.6434 125.86 33.4688 125.591 34.2275 125.184C34.8737 124.829 35.4055 124.299 35.7611 123.654C36.1503 122.884 36.3373 122.029 36.3046 121.168C36.3417 120.339 36.148 119.515 35.7449 118.789C35.3772 118.169 34.8543 117.654 34.2275 117.296C33.5405 116.909 32.7898 116.647 32.0106 116.523C31.1287 116.376 30.2359 116.304 29.3417 116.308H29.331Z" fill="#1D252C"/>
<path d="M56.5852 128.014C56.9673 128.497 57.4551 129.127 58.0488 129.904C58.6353 130.683 59.2434 131.547 59.8729 132.497C60.5025 133.448 61.1213 134.438 61.7293 135.467C62.308 136.434 62.8325 137.432 63.3005 138.458H59.4747C58.9905 137.545 58.4667 136.619 57.9035 135.682C57.3403 134.744 56.7682 133.849 56.187 132.997C55.6113 132.143 55.0355 131.348 54.4705 130.602C53.9055 129.856 53.3944 129.211 52.937 128.658C52.6249 128.68 52.3074 128.696 51.9792 128.696H47.8467V138.458H44.3438V113.855C45.4292 113.599 46.5345 113.435 47.6476 113.366C48.8637 113.28 49.9775 113.242 50.9891 113.242C54.5028 113.242 57.1789 113.903 59.0174 115.224C60.8558 116.545 61.776 118.513 61.7777 121.13C61.8178 122.654 61.3545 124.148 60.4594 125.383C59.4674 126.636 58.113 127.555 56.5798 128.014H56.5852ZM51.2743 116.308C49.7838 116.308 48.6377 116.346 47.8467 116.416V125.818H50.338C51.424 125.824 52.5093 125.765 53.5881 125.641C54.4337 125.554 55.2582 125.324 56.0256 124.959C56.6643 124.643 57.1971 124.148 57.5592 123.536C57.953 122.787 58.1405 121.948 58.1026 121.103C58.131 120.289 57.9435 119.481 57.5592 118.762C57.2096 118.15 56.7048 117.641 56.0956 117.286C55.4243 116.905 54.6897 116.649 53.9271 116.529C53.0507 116.381 52.1631 116.309 51.2743 116.314V116.308Z" fill="#1D252C"/>
<path d="M65.6411 125.963C65.6038 124.035 65.9286 122.117 66.5989 120.309C67.1673 118.779 68.053 117.387 69.1978 116.223C70.2806 115.136 71.5856 114.295 73.0236 113.758C74.5059 113.201 76.0781 112.921 77.6619 112.931C79.2232 112.919 80.7729 113.199 82.2303 113.758C83.6491 114.302 84.935 115.143 86.0023 116.223C87.1337 117.394 88.0127 118.785 88.5851 120.309C89.8621 123.97 89.8621 127.955 88.5851 131.617C88.0161 133.142 87.1367 134.534 86.0023 135.703C84.9379 136.787 83.6511 137.627 82.2303 138.168C80.7724 138.725 79.223 139.005 77.6619 138.995C76.0783 139.003 74.5065 138.722 73.0236 138.168C71.5866 137.628 70.282 136.788 69.1978 135.703C68.053 134.539 67.1673 133.146 66.5989 131.617C65.9286 129.808 65.6038 127.891 65.6411 125.963ZM69.3216 125.963C69.3056 127.358 69.4997 128.749 69.8973 130.087C70.2337 131.234 70.7912 132.304 71.5385 133.238C72.2389 134.095 73.1284 134.779 74.1374 135.236C75.2226 135.717 76.3994 135.957 77.5866 135.939C78.7669 135.958 79.937 135.718 81.0142 135.236C82.0168 134.776 82.9003 134.092 83.597 133.238C84.3443 132.304 84.9018 131.234 85.2382 130.087C86.0058 127.391 86.0058 124.535 85.2382 121.839C84.8996 120.693 84.3423 119.623 83.597 118.687C82.9003 117.833 82.0168 117.15 81.0142 116.69C79.937 116.208 78.7669 115.968 77.5866 115.986C76.3994 115.969 75.2226 116.209 74.1374 116.69C73.1284 117.147 72.2389 117.83 71.5385 118.687C70.7912 119.621 70.2337 120.692 69.8973 121.839C69.497 123.177 69.3029 124.567 69.3216 125.963Z" fill="#1D252C"/>
<path d="M114.333 113.5C113.418 116.142 112.546 118.585 111.718 120.83C110.889 123.074 110.076 125.206 109.28 127.225C108.484 129.244 107.698 131.166 106.918 133.008C106.138 134.849 105.336 136.664 104.518 138.463H101.236C100.418 136.664 99.6178 134.846 98.8358 133.008C98.0538 131.169 97.2592 129.242 96.4521 127.225C95.6449 125.206 94.8217 123.079 93.9823 120.83C93.1428 118.58 92.2711 116.142 91.3833 113.5H95.2468C96.5435 117.296 97.8188 120.946 99.0726 124.449C100.326 127.951 101.614 131.241 102.936 134.318C104.26 131.268 105.548 127.984 106.799 124.465C108.051 120.946 109.314 117.289 110.588 113.495H114.343L114.333 113.5Z" fill="#1D252C"/>
<path d="M117.798 113.5H121.301V138.463H117.798V113.5Z" fill="#1D252C"/>
<path d="M144.654 138.463C144.126 137.577 143.518 136.58 142.83 135.472C142.146 134.366 141.404 133.222 140.607 132.03C139.811 130.838 138.988 129.636 138.137 128.411C137.287 127.187 136.437 126.006 135.592 124.862C134.748 123.718 133.93 122.644 133.139 121.64C132.348 120.636 131.61 119.745 130.938 118.977V138.463H127.51V113.5H130.292C131.422 114.703 132.631 116.103 133.919 117.699C135.207 119.296 136.482 120.941 137.745 122.634C139.009 124.325 140.2 125.988 141.318 127.622C142.435 129.256 143.38 130.709 144.153 131.982V113.506H147.581V138.468H144.659L144.654 138.463Z" fill="#1D252C"/>
<path d="M164.541 139C162.901 139.021 161.272 138.727 159.742 138.135C158.329 137.581 157.059 136.719 156.024 135.612C154.946 134.432 154.129 133.04 153.624 131.526C153.03 129.732 152.743 127.852 152.774 125.963C152.739 124.065 153.064 122.178 153.731 120.4C154.304 118.876 155.183 117.486 156.314 116.314C157.386 115.217 158.676 114.357 160.102 113.79C161.573 113.209 163.142 112.916 164.724 112.926C165.662 112.917 166.598 112.989 167.522 113.141C168.255 113.262 168.98 113.431 169.691 113.645C170.203 113.8 170.703 113.992 171.187 114.22C171.569 114.413 171.838 114.558 171.983 114.649L170.972 117.533C170.676 117.347 170.362 117.19 170.035 117.066C169.626 116.899 169.164 116.727 168.647 116.561C168.092 116.384 167.526 116.246 166.952 116.147C166.339 116.04 165.718 115.986 165.096 115.986C163.871 115.969 162.655 116.201 161.523 116.668C160.48 117.112 159.553 117.79 158.816 118.65C158.037 119.574 157.453 120.646 157.1 121.802C156.685 123.149 156.484 124.553 156.502 125.963C156.483 127.337 156.659 128.708 157.024 130.033C157.333 131.177 157.867 132.249 158.596 133.185C159.293 134.06 160.19 134.758 161.211 135.22C162.365 135.723 163.616 135.969 164.875 135.939C166.229 135.975 167.581 135.805 168.884 135.435C169.699 135.192 170.496 134.891 171.268 134.533L172.172 137.416C171.885 137.595 171.583 137.746 171.268 137.867C170.739 138.078 170.196 138.252 169.643 138.388C168.893 138.574 168.133 138.717 167.366 138.817C166.433 138.94 165.493 138.999 164.552 138.995L164.541 139Z" fill="#1D252C"/>
<path d="M176.164 113.5H179.667V138.463H176.164V113.5Z" fill="#1D252C"/>
<path d="M202.584 138.463C202.175 137.384 201.79 136.321 201.427 135.274C201.067 134.226 200.696 133.169 200.308 132.084H188.976L186.7 138.458H183.057C184.02 135.816 184.922 133.373 185.764 131.128C186.605 128.884 187.428 126.752 188.234 124.733C189.041 122.714 189.842 120.792 190.633 118.95C191.424 117.109 192.258 115.294 193.125 113.495H196.337C197.203 115.294 198.034 117.112 198.828 118.95C199.623 120.788 200.423 122.716 201.228 124.733C202.035 126.752 202.859 128.884 203.698 131.128C204.538 133.373 205.44 135.816 206.405 138.458H202.579L202.584 138.463ZM199.302 129.206C198.532 127.117 197.768 125.095 197.01 123.138C196.251 121.182 195.464 119.303 194.647 117.501C193.803 119.299 193.003 121.179 192.248 123.138C191.493 125.098 190.741 127.121 189.993 129.206H199.307H199.302Z" fill="#1D252C"/>
</g>
<defs>
<clipPath id="clip0_7001_2118">
<rect width="224" height="139" fill="white"/>
</clipPath>
</defs>
</svg>
